<?xml version="1.0" encoding="utf-8"?>
<!-- Generator: Adobe Illustrator 19.0.0, SVG Export Plug-In . SVG Version: 6.00 Build 0)  -->
<svg version="1.1" id="Layer_1" xmlns="http://www.w3.org/2000/svg" xmlns:xlink="http://www.w3.org/1999/xlink" x="0px" y="0px"
	 viewBox="0 0 612 792" style="enable-background:new 0 0 612 792;" xml:space="preserve">
<style type="text/css">
	.st0{fill:#F26A22;}
	.st1{fill:#333333;}
</style>
<g id="XMLID_1_">
	<path id="XMLID_28_" class="st0" d="M262.2,90.3c19.2,0,38.3,0.6,57.5-0.2c16.2-0.6,27.2,6.8,36.1,19.1c2.1,2.9,4.5,5.9,7.3,8
		c5.1,3.8,10.5,3,14.6-2c1.7-2,3.1-4.4,4.4-6.7c26.6-46.3,53.2-92.6,79.8-138.9c0.2-0.4,0.5-0.9,0.8-1.3c7.9-13.7,18.1-13.8,26.3,0
		c10.1,17,20,34.2,29.9,51.3c31.3,53.8,62.5,107.6,93.8,161.4c10.2,17.6,10.8,34.8,0.4,52.8c-53.9,93.4-107.5,186.9-161.1,280.4
		c-0.4,0.7-0.8,1.4-1.2,2.2c-6.9,11.8-15.8,12.4-24.3,1.5c-1.6-2.1-3-4.4-4.3-6.7C345.9,380.2,269.8,249.2,193.8,118
		c-2.8-4.8-5-10.3-5.8-15.7c-1.2-7,2.6-10.5,9.8-10.5c21.5-0.1,43,0,64.5,0C262.2,91.3,262.2,90.8,262.2,90.3z M390.5,153.3
		c0,9.3,1.5,17.5,5.9,25.1c32.7,56.3,65.3,112.5,98,168.7c3.3,5.7,7.6,10.6,14.9,9.8c7.2-0.8,10-6.8,11.9-12.7
		c4.4-14,2.8-27.8-4.5-40.4c-31.7-54.9-63.6-109.7-95.5-164.4c-2-3.4-4.6-6.6-7.6-9.1c-6.4-5.3-12.7-4.1-17.5,2.8
		C391.6,139.3,390.6,146.5,390.5,153.3z"/>
	<path id="XMLID_27_" class="st1" d="M54.6,99.6c27,0,54,0.1,81,0c18.6-0.1,32.4,8.4,41.5,24c23.9,40.8,47.4,81.8,71,122.7
		c52.7,91.2,105.4,182.4,158.2,273.6c5.6,9.7,9.6,19.8,8.6,31.2c-0.3,3.9-1.3,8-3.2,11.3c-21.1,36.6-42.5,73.1-63.9,109.6
		c-4.6,7.8-11.1,9-17.6,2.7c-3.3-3.2-6-7.2-8.3-11.1C247,533.6,172.1,403.8,97.1,273.9c-5.9-10.2-11.6-20.6-17.8-30.7
		c-9.2-15.1-22.4-23.4-40.4-24.5c-7.1-0.5-14.1-3.4-21-5.6c-2.1-0.7-4-2.4-5.5-4.1c-4-4.5-2.8-10,2.9-12c3.8-1.3,8.1-1.8,12.2-1.9
		c11.8-0.4,17.6-7.5,12.6-18.2c-6.3-13.1-13.6-26-22.3-37.6c-7.6-10-19-15-32.2-15.9c-7-0.5-14-2.7-20.8-4.8
		c-2.7-0.8-5.3-2.8-7.3-4.9c-4.3-4.5-3-10.5,3-12.3c4.7-1.4,9.8-1.8,14.8-1.8C1.6,99.5,28.1,99.6,54.6,99.6z"/>
</g>
</svg>
